# xmcd
#
# Track frame offsets: 
#        150
#        15210
#        30692
#        46632
#
# Disc length: 822 seconds
#
# Revision: 1
# Processed by: cddbd v1.5.2PL0 Copyright (c) Steve Scherf et al.
# Submitted via: ExactAudioCopy v1.0b3
#
DISCID=1c033404
DTITLE=Mariah Carey - Against All Odds
DYEAR=2000
DGENRE=Pop
TTITLE0=Against All Odds (feat. Westlife)
TTITLE1=Against All Odds (Album Version)
TTITLE2=Against All Odds (Pound Boys Radio Edit)
TTITLE3=Against All Odds (Instrumental)
EXTD=ID3G: 13
EXTT0=
EXTT1=
EXTT2=
EXTT3=
PLAYORDER=
